<svg xmlns="http://www.w3.org/2000/svg" viewBox="0 0 128 128">
  <defs>
    <linearGradient id="clawGrad" x1="0%" y1="0%" x2="100%" y2="100%">
      <stop offset="0%" style="stop-color:#FF6B6B;stop-opacity:1" />
      <stop offset="100%" style="stop-color:#FF8E53;stop-opacity:1" />
    </linearGradient>
  </defs>
  <circle cx="64" cy="64" r="60" fill="url(#clawGrad)"/>
  <path d="M64 30c-8 0-14 6-14 14 0 5 3 10 7 12-4 2-7 7-7 12 0 8 6 14 14 14s14-6 14-14c0-5-3-10-7-12 4-2 7-7 7-12 0-8-6-14-14-14zm0 8c3 0 6 3 6 6s-3 6-6 6-6-3-6-6 3-6 6-6zm0 28c-4 0-7-3-7-7s3-7 7-7 7 3 7 7-3 7-7 7z" fill="white"/>
  <ellipse cx="40" cy="90" rx="8" ry="6" fill="white" opacity="0.8"/>
  <ellipse cx="88" cy="90" rx="8" ry="6" fill="white" opacity="0.8"/>
  <ellipse cx="30" cy="70" rx="6" ry="4" fill="white" opacity="0.6"/>
  <ellipse cx="98" cy="70" rx="6" ry="4" fill="white" opacity="0.6"/>
</svg>
