<svg xmlns="http://www.w3.org/2000/svg" viewBox="0 0 600 450">
  <!-- Background -->
  <rect width="600" height="450" fill="#1e1e1e"/>
  
  <!-- Header -->
  <rect width="600" height="40" fill="#252526"/>
  <text x="20" y="27" fill="#ffffff" font-family="Arial" font-size="16" font-weight="bold">🧠 Model Configuration</text>
  
  <!-- Provider: NVIDIA -->
  <rect x="15" y="55" width="570" height="130" rx="6" fill="#2d2d2d" stroke="#3c3c3c"/>
  <text x="30" y="78" fill="#ffffff" font-family="Arial" font-size="14" font-weight="bold">🟢 NVIDIA NIM</text>
  
  <text x="30" y="98" fill="#808080" font-family="Arial" font-size="10">API Key:</text>
  <rect x="80" y="85" width="250" height="18" rx="3" fill="#3c3c3c"/>
  <text x="88" y="98" fill="#569cd6" font-family="Arial" font-size="10">nvapi-xxxx-xxxx-xxxx-xxxx</text>
  
  <!-- Model Cards -->
  <rect x="30" y="110" width="130" height="65" rx="4" fill="#3c3c3c" stroke="#0e639c" stroke-width="2"/>
  <text x="40" y="130" fill="#ffffff" font-family="Arial" font-size="11" font-weight="bold">MiniMax M2.5</text>
  <rect x="105" y="118" width="50" height="14" rx="2" fill="#28a74520"/>
  <text x="110" y="128" fill="#28a745" font-family="Arial" font-size="8">⭐ Rec</text>
  <text x="40" y="148" fill="#808080" font-family="Arial" font-size="9">128K context • Fast</text>
  <text x="40" y="165" fill="#28a745" font-family="Arial" font-size="9">Free</text>
  
  <rect x="170" y="110" width="130" height="65" rx="4" fill="#3c3c3c"/>
  <text x="180" y="130" fill="#ffffff" font-family="Arial" font-size="11" font-weight="bold">DeepSeek V3</text>
  <rect x="245" y="118" width="50" height="14" rx="2" fill="#28a74520"/>
  <text x="250" y="128" fill="#28a745" font-family="Arial" font-size="8">⭐ Rec</text>
  <text x="180" y="148" fill="#808080" font-family="Arial" font-size="9">128K context • Coding</text>
  <text x="180" y="165" fill="#28a745" font-family="Arial" font-size="9">Free</text>
  
  <rect x="310" y="110" width="130" height="65" rx="4" fill="#3c3c3c"/>
  <text x="320" y="130" fill="#ffffff" font-family="Arial" font-size="11" font-weight="bold">Qwen 3 30B</text>
  <text x="320" y="148" fill="#808080" font-family="Arial" font-size="9">32K context • Chinese</text>
  <text x="320" y="165" fill="#28a745" font-family="Arial" font-size="9">Free</text>
  
  <rect x="450" y="110" width="130" height="65" rx="4" fill="#3c3c3c"/>
  <text x="460" y="130" fill="#ffffff" font-family="Arial" font-size="11" font-weight="bold">Llama 3.3 70B</text>
  <text x="460" y="148" fill="#808080" font-family="Arial" font-size="9">128K context • General</text>
  <text x="460" y="165" fill="#28a745" font-family="Arial" font-size="9">Free</text>
  
  <!-- Provider: OpenAI -->
  <rect x="15" y="195" width="570" height="90" rx="6" fill="#2d2d2d" stroke="#3c3c3c"/>
  <text x="30" y="218" fill="#ffffff" font-family="Arial" font-size="14" font-weight="bold">🟣 OpenAI</text>
  
  <text x="30" y="238" fill="#808080" font-family="Arial" font-size="10">API Key:</text>
  <rect x="80" y="225" width="250" height="18" rx="3" fill="#3c3c3c"/>
  <text x="88" y="238" fill="#569cd6" font-family="Arial" font-size="10">sk-xxxx-xxxx-xxxx-xxxx</text>
  
  <rect x="30" y="250" width="130" height="30" rx="4" fill="#3c3c3c"/>
  <text x="40" y="265" fill="#ffffff" font-family="Arial" font-size="10">GPT-4o</text>
  <text x="40" y="275" fill="#808080" font-family="Arial" font-size="8">$2.5/$10 per 1M</text>
  
  <rect x="170" y="250" width="130" height="30" rx="4" fill="#3c3c3c"/>
  <text x="180" y="265" fill="#ffffff" font-family="Arial" font-size="10">GPT-4o Mini</text>
  <text x="180" y="275" fill="#808080" font-family="Arial" font-size="8">$0.15/$0.6 per 1M</text>
  
  <rect x="310" y="250" width="130" height="30" rx="4" fill="#3c3c3c"/>
  <text x="320" y="265" fill="#ffffff" font-family="Arial" font-size="10">O1</text>
  <text x="320" y="275" fill="#808080" font-family="Arial" font-size="8">$15/$60 per 1M</text>
  
  <!-- Provider: Anthropic -->
  <rect x="15" y="295" width="570" height="65" rx="6" fill="#2d2d2d" stroke="#3c3c3c"/>
  <text x="30" y="318" fill="#ffffff" font-family="Arial" font-size="14" font-weight="bold">🟠 Anthropic</text>
  
  <rect x="30" y="330" width="130" height="25" rx="4" fill="#3c3c3c" stroke="#0e639c" stroke-width="2"/>
  <text x="40" y="347" fill="#ffffff" font-family="Arial" font-size="10">Claude Sonnet 4</text>
  <rect x="105" y="332" width="50" height="12" rx="2" fill="#28a74520"/>
  <text x="110" y="341" fill="#28a745" font-family="Arial" font-size="7">⭐ Rec</text>
  
  <rect x="170" y="330" width="130" height="25" rx="4" fill="#3c3c3c"/>
  <text x="180" y="347" fill="#ffffff" font-family="Arial" font-size="10">Claude Opus 4</text>
  
  <rect x="310" y="330" width="130" height="25" rx="4" fill="#3c3c3c"/>
  <text x="320" y="347" fill="#ffffff" font-family="Arial" font-size="10">Claude 3.5 Haiku</text>
  
  <!-- Provider: Ollama (Local) -->
  <rect x="15" y="370" width="570" height="60" rx="6" fill="#2d2d2d" stroke="#3c3c3c"/>
  <text x="30" y="393" fill="#ffffff" font-family="Arial" font-size="14" font-weight="bold">🦙 Ollama (Local)</text>
  <text x="150" y="393" fill="#28a745" font-family="Arial" font-size="10">No API Key Required</text>
  
  <rect x="30" y="405" width="100" height="20" rx="4" fill="#3c3c3c"/>
  <text x="40" y="419" fill="#ffffff" font-family="Arial" font-size="9">llama3.2</text>
  
  <rect x="140" y="405" width="100" height="20" rx="4" fill="#3c3c3c"/>
  <text x="150" y="419" fill="#ffffff" font-family="Arial" font-size="9">qwen2.5</text>
  
  <rect x="250" y="405" width="100" height="20" rx="4" fill="#3c3c3c"/>
  <text x="260" y="419" fill="#ffffff" font-family="Arial" font-size="9">deepseek-v2</text>
</svg>
